# Blender v3.0.1 OBJ File: ''
# www.blender.org
mtllib ramps.mtl
o Plane.004
v -4.879385 1.364040 -10.000000
v -1.120615 -0.004040 -10.000000
v -4.879385 1.364040 -14.000000
v -1.120615 -0.004040 -14.000000
v -4.992390 0.354311 2.000000
v -1.007611 0.005689 2.000000
v -4.992390 0.354311 -2.000000
v -1.007611 0.005689 -2.000000
v -4.931851 1.017638 -6.000000
v -1.068148 -0.017638 -6.000000
v -4.931851 1.017638 -10.000000
v -1.068148 -0.017638 -10.000000
v -4.969615 0.707296 -2.000000
v -1.030385 0.012704 -2.000000
v -4.969615 0.707296 -6.000000
v -1.030385 0.012704 -6.000000
vt 0.000000 0.000000
vt 1.000000 0.000000
vt 1.000000 1.000000
vt 0.000000 1.000000
vt 0.000000 0.000000
vt 1.000000 0.000000
vt 1.000000 1.000000
vt 0.000000 1.000000
vt 0.000000 0.000000
vt 1.000000 0.000000
vt 1.000000 1.000000
vt 0.000000 1.000000
vt 0.000000 0.000000
vt 1.000000 0.000000
vt 1.000000 1.000000
vt 0.000000 1.000000
vn 0.3420 0.9397 0.0000
vn 0.0872 0.9962 0.0000
vn 0.2588 0.9659 0.0000
vn 0.1736 0.9848 0.0000
usemtl None
s off
f 1/1/1 2/2/1 4/3/1 3/4/1
f 5/5/2 6/6/2 8/7/2 7/8/2
f 9/9/3 10/10/3 12/11/3 11/12/3
f 13/13/4 14/14/4 16/15/4 15/16/4
